<?xml version="1.0" encoding="UTF-8" standalone="no"?>
<svg
   width="20"
   height="20"
   fill="currentColor"
   class="bi bi-graph-up"
   viewBox="0 0 20 20"
   version="1.1"
   id="svg1"
   sodipodi:docname="graph_rect.svg"
   xml:space="preserve"
   inkscape:version="1.3.2 (091e20e, 2023-11-25, custom)"
   xmlns:inkscape="http://www.inkscape.org/namespaces/inkscape"
   xmlns:sodipodi="http://sodipodi.sourceforge.net/DTD/sodipodi-0.dtd"
   xmlns:xlink="http://www.w3.org/1999/xlink"
   xmlns="http://www.w3.org/2000/svg"
   xmlns:svg="http://www.w3.org/2000/svg"><defs
     id="defs1"><linearGradient
       id="swatch2"
       inkscape:swatch="solid"><stop
         style="stop-color:#8eef97;stop-opacity:1;"
         offset="0"
         id="stop2" /></linearGradient><linearGradient
       id="swatch1"
       inkscape:swatch="solid"><stop
         style="stop-color:#000000;stop-opacity:1;"
         offset="0"
         id="stop1" /></linearGradient><linearGradient
       inkscape:collect="always"
       xlink:href="#swatch2"
       id="linearGradient1"
       x1="0.41235402"
       y1="8.0996046"
       x2="15.4375"
       y2="8.0996046"
       gradientUnits="userSpaceOnUse" /><linearGradient
       inkscape:collect="always"
       xlink:href="#swatch2"
       id="linearGradient2"
       x1="0.41235401"
       y1="8.0996046"
       x2="15.4375"
       y2="8.0996046"
       gradientUnits="userSpaceOnUse" /></defs><sodipodi:namedview
     id="namedview1"
     pagecolor="#ffffff"
     bordercolor="#999999"
     borderopacity="1"
     inkscape:showpageshadow="2"
     inkscape:pageopacity="0"
     inkscape:pagecheckerboard="0"
     inkscape:deskcolor="#d1d1d1"
     inkscape:zoom="18.384776"
     inkscape:cx="20.533293"
     inkscape:cy="5.8200327"
     inkscape:window-width="1920"
     inkscape:window-height="1010"
     inkscape:window-x="1699"
     inkscape:window-y="-6"
     inkscape:window-maximized="1"
     inkscape:current-layer="g1" /><g
     id="g1"
     transform="translate(2,2)"><path
       fill="#8da5f3"
       d="m 11,4 h 2 v 2 h -2 z m 0,7 h 2 v 2 h -2 z m -7,0 h 2 v 2 H 4 Z"
       id="path1-0"
       style="display:none" /><g
       fill="none"
       stroke="#8da5f3"
       stroke-linecap="round"
       id="g3"
       style="display:none"><path
         d="m 2.5,8 v 5 A 1.5,1.5 0 0 0 4,14.5 h 9 A 1.5,1.5 0 0 0 14.5,13 V 4 A 1.5,1.5 0 0 0 13,2.5 H 8"
         id="path2" /><path
         stroke-width="1.5"
         d="m 2,2 6,6 m -1,-6.25 2,2 M 1.75,7 l 2,2"
         id="path3" /></g><rect
       style="display:inline;opacity:0.5;fill:none;stroke:none;stroke-width:4;stroke-linejoin:round;stroke-opacity:0;paint-order:stroke fill markers"
       id="rect1"
       width="20"
       height="20"
       x="-2"
       y="-2"
       inkscape:label="page_rect" /><path
       fill-rule="evenodd"
       d="m 1.0000002,1 h 0.875 V 14.125 H 15 V 15 c 0,0 -13.6621923,0.448182 -13.9999998,0 -0.33780747,-0.448182 0,-14 0,-14 z M 13.964875,3.723875 c 0.187136,0.1531262 0.214569,0.4290217 0.06125,0.616 l -3.9375,4.8125 C 9.9247625,9.3523809 9.624121,9.3674129 9.441125,9.18475 l -2.2636251,-2.263625 -3.199,4.398625 c -0.3473855,0.441727 -1.0204801,-0.0481 -0.707,-0.5145 l 3.5,-4.8125 C 6.9294697,5.7751415 7.244512,5.7502041 7.4347499,5.94025 L 9.717625,8.224 13.348875,3.7851249 c 0.153126,-0.1871365 0.429022,-0.2145692 0.616,-0.06125"
       id="path1"
       style="display:inline;fill:url(#linearGradient2);stroke:url(#linearGradient1);stroke-width:0.875;stroke-dasharray:none;paint-order:stroke fill markers"
       sodipodi:nodetypes="ccccczccccccccccccc" /></g></svg>
