<?xml version="1.0" encoding="UTF-8" standalone="no"?>
<svg
   viewBox="0 0 24 24"
   version="1.1"
   id="svg2"
   sodipodi:docname="arrow-circle-down.svg"
   inkscape:version="1.3.2 (091e20e, 2023-11-25, custom)"
   xmlns:inkscape="http://www.inkscape.org/namespaces/inkscape"
   xmlns:sodipodi="http://sodipodi.sourceforge.net/DTD/sodipodi-0.dtd"
   xmlns="http://www.w3.org/2000/svg"
   xmlns:svg="http://www.w3.org/2000/svg">
  <defs
     id="defs2" />
  <sodipodi:namedview
     id="namedview2"
     pagecolor="#ffffff"
     bordercolor="#999999"
     borderopacity="1"
     inkscape:showpageshadow="2"
     inkscape:pageopacity="0"
     inkscape:pagecheckerboard="0"
     inkscape:deskcolor="#d1d1d1"
     inkscape:zoom="33.916667"
     inkscape:cx="12"
     inkscape:cy="12"
     inkscape:window-width="1920"
     inkscape:window-height="1010"
     inkscape:window-x="1699"
     inkscape:window-y="-6"
     inkscape:window-maximized="1"
     inkscape:current-layer="svg2" />
  <g
     data-name="Layer 2"
     id="g2">
    <g
       data-name="arrow-circle-down"
       id="g1">
      <rect
         width="24"
         height="24"
         opacity="0"
         id="rect1" />
      <path
         d="M12 2a10 10 0 1 0 10 10A10 10 0 0 0 12 2zm3.69 11.86l-3 2.86a.49.49 0 0 1-.15.1.54.54 0 0 1-.16.1.94.94 0 0 1-.76 0 1 1 0 0 1-.33-.21l-3-3a1 1 0 0 1 1.42-1.42l1.29 1.3V8a1 1 0 0 1 2 0v5.66l1.31-1.25a1 1 0 0 1 1.38 1.45z"
         id="path1"
         style="fill:#ffffff;fill-opacity:1" />
    </g>
  </g>
</svg>
