<?xml version="1.0" encoding="UTF-8" standalone="no"?>
<!-- Created with Inkscape (http://www.inkscape.org/) -->

<svg
   width="160.18529"
   height="102.42789"
   viewBox="0 0 160.18529 102.42789"
   version="1.1"
   id="svg1"
   xmlns="http://www.w3.org/2000/svg"
   xmlns:svg="http://www.w3.org/2000/svg">
  <defs
     id="defs1" />
  <g
     id="layer1"
     transform="translate(-9.907361,-38.786057)">
    <rect
       style="font-variation-settings:normal;display:none;vector-effect:none;fill:#ffff00;fill-opacity:1;stroke:none;stroke-width:3.07653;stroke-linecap:round;stroke-linejoin:round;stroke-miterlimit:4;stroke-dasharray:none;stroke-dashoffset:0;stroke-opacity:1;-inkscape-stroke:none;paint-order:normal;stop-color:#000000"
       id="rect1"
       width="180"
       height="130.5835"
       x="5.6843419e-14"
       y="24.708248" />
    <g
       id="g31"
       style="display:inline;fill:#ff00ff;fill-opacity:1;stroke:none;stroke-width:2.52342;stroke-dasharray:none"
       transform="matrix(0.79257607,0,0,0.79257607,-274.49531,-17.112732)">
      <g
         id="g43"
         style="display:inline;fill:#ff00ff;fill-opacity:1;stroke:none;stroke-width:2.52342;stroke-dasharray:none">
        <path
           d="m 384.16043,154.43407 q 1.49362,0 2.85736,-0.19482 1.42867,-0.19482 2.92229,-0.19482 0.51952,0 0.9741,0.0649 0.45458,0.0649 0.45458,0.77928 0,0.12988 -0.0649,0.25976 0,0.0649 0,0.19481 -0.45458,2.46772 -0.77928,4.8705 -0.3247,2.40277 -0.3247,4.93543 0,3.83145 0.51952,7.59797 0.58446,3.76651 0.90916,7.59797 0.3247,3.37687 0.38964,6.75375 0.12988,3.31193 0.45458,6.62387 0.0649,0.71434 0.3247,1.36374 0.3247,0.58445 0.6494,1.23385 0.3247,0.58446 0.58446,1.23386 0.3247,0.58446 0.45458,1.2988 -0.6494,0.12988 -1.2988,0.19482 -0.6494,0.0649 -1.36374,0.0649 -1.36374,0 -2.72748,-0.0649 -1.29879,-0.12988 -2.66253,-0.12988 -1.23386,0 -2.46772,0.12988 -1.23386,0.12988 -2.46772,0.12988 -0.77927,0 -1.23385,-0.12988 -0.38964,-0.19482 -1.03904,-0.71434 0.71434,-0.9741 1.42868,-1.88326 0.77927,-0.97409 1.10397,-2.14301 0.84422,-3.05218 1.03904,-6.36411 0.25976,-3.31194 0.25976,-6.42905 0,-0.84422 0,-1.49362 0,-0.71434 -0.25976,-1.23386 -0.19482,-0.51952 -0.71434,-0.77928 -0.51952,-0.3247 -1.49361,-0.3247 -0.9741,0 -1.9482,0.3247 -0.90916,0.3247 -1.81832,0.71434 -0.90916,0.38964 -1.81832,0.71434 -0.84421,0.3247 -1.81831,0.3247 -1.88326,0 -2.66254,-1.36374 -0.77928,-1.36374 -0.77928,-2.98724 0,-1.55855 0.84422,-2.92229 0.84422,-1.36374 2.53266,-1.49362 0.58446,0.71434 0.84422,1.16892 0.25976,0.38964 0.51952,0.6494 0.25975,0.19482 0.77927,0.25976 0.51952,0.0649 1.6235,0.0649 0.58446,0 1.55856,-0.0649 1.03904,-0.12988 2.01314,-0.38964 0.97409,-0.25976 1.68843,-0.71434 0.77928,-0.45458 0.90916,-1.23386 0.25976,-1.2988 0.25976,-2.66253 0.0649,-1.42868 0.0649,-2.72748 0,-0.90916 0,-1.75338 0,-0.84422 -0.19482,-1.55856 -0.19482,-0.77927 -0.71434,-1.36373 -0.45458,-0.6494 -1.36373,-1.16892 -1.2988,-0.71434 -2.66254,-0.71434 -3.44182,0 -5.64977,2.14302 -2.14302,2.14301 -3.44182,5.26013 -1.23386,3.11711 -1.68843,6.55893 -0.45458,3.44181 -0.45458,6.03941 0,1.75338 0.25976,4.35097 0.25976,2.53266 1.03903,4.93544 0.77928,2.40277 2.20796,4.15615 1.42868,1.68844 3.83145,1.68844 0.6494,0 1.23386,-0.12988 0.58446,-0.12988 1.16892,-0.3247 0.12988,0.51952 0.25976,1.10398 0.12988,0.51952 0.12988,1.03903 0,0.90916 -0.51952,1.6235 -0.45458,0.6494 -1.16892,1.10398 -0.71434,0.45458 -1.62349,0.71434 -0.84422,0.19482 -1.6235,0.19482 -1.55856,0 -3.11712,-0.12988 -1.55855,-0.12988 -3.11711,-0.12988 -1.42868,0 -2.79242,0.25976 -1.36374,0.19482 -2.79241,0.19482 -0.90916,0 -1.75338,-0.19482 0.19482,-0.90916 0.51952,-1.68844 0.38964,-0.84422 0.6494,-1.75338 0.3247,-1.10397 0.38964,-2.20795 0.12988,-1.10398 0.19482,-2.20796 0.19482,-4.67567 0.45458,-9.35134 0.25975,-4.67568 0.97409,-9.28641 0.19482,-1.36374 0.51952,-2.85736 0.3247,-1.55855 0.58446,-3.11711 0.3247,-1.55856 0.51952,-3.05218 0.25976,-1.55856 0.25976,-2.85735 0,-0.90916 -0.25976,-1.81832 -0.19482,-0.9741 -0.51952,-1.75338 -0.25976,-0.84422 -0.51952,-1.36374 -0.19482,-0.58446 -0.19482,-0.71433 0,-0.71434 0.51952,-0.77928 0.51952,-0.0649 1.03904,-0.0649 1.75338,0 3.44182,0.12988 1.75337,0.12988 3.44181,0.12988 1.75338,0 3.44182,-0.12988 1.75337,-0.19482 3.50675,-0.19482 1.6235,0 3.18206,0.0649 1.55855,0.0649 3.18205,0.0649 z m 33.12192,-0.71434 q 1.23386,0 2.33784,1.16892 1.10398,1.16891 1.9482,2.79241 0.84422,1.55856 1.2988,3.247 0.51951,1.62349 0.51951,2.66253 0,3.83146 -1.29879,6.49399 -1.23386,2.5976 -2.79242,4.41592 -1.55856,1.75337 -2.85735,2.85735 -1.23386,1.10398 -1.23386,1.9482 0,0.45458 0.3247,1.49362 0.38964,0.9741 0.84422,2.07807 0.45457,1.10398 0.90915,2.14302 0.45458,1.03904 0.71434,1.49362 1.16892,2.33783 2.46772,4.67567 1.36374,2.2729 3.37687,4.02628 0.38964,0.3247 1.10398,0.71433 0.71434,0.3247 0.6494,0.9741 -0.77928,1.2988 -2.01314,1.81832 -1.23385,0.51952 -2.66253,0.51952 -2.98724,0 -5.06531,-1.75338 -2.01314,-1.81832 -3.5717,-4.28603 -1.49362,-2.53266 -2.79241,-5.26013 -1.23386,-2.79242 -2.5976,-4.74062 -0.45458,-0.58446 -1.16892,-1.03904 -0.71434,-0.51951 -0.71434,-1.36373 0,-0.51952 0.3247,-0.77928 0.3247,-0.3247 0.77928,-0.51952 0.45458,-0.19482 0.90916,-0.25976 0.51952,-0.12988 0.84422,-0.25976 1.75338,-0.77928 2.98723,-2.14302 1.23386,-1.42868 2.01314,-3.11711 0.77928,-1.75338 1.10398,-3.63664 0.3247,-1.94819 0.3247,-3.76651 0,-1.36374 -0.45458,-2.85736 -0.45458,-1.55855 -1.2988,-2.79241 -0.84422,-1.2988 -2.14302,-2.07808 -1.23385,-0.84422 -2.79241,-0.84422 -1.68844,0 -2.46772,1.03904 -0.77928,0.9741 -1.03904,2.40278 -0.19482,1.36373 -0.12988,2.92229 0.0649,1.55856 0.0649,2.66254 0,2.66253 0,6.42905 0,3.70157 0.19482,7.59797 0.25976,3.89639 0.77928,7.53303 0.51952,3.57169 1.6235,5.97447 0.51952,1.16892 1.36374,2.14301 0.84422,0.90916 1.2988,2.14302 -1.16892,0.38964 -2.53266,0.38964 -0.90916,0 -1.88326,-0.0649 -0.9741,-0.12988 -1.94819,-0.12988 -2.01314,0 -4.02628,0.0649 -1.9482,0.0649 -3.96133,0.25976 v -0.38964 q 0,-0.84422 0.3247,-1.6235 0.38964,-0.77928 0.51952,-1.55855 0.45458,-2.20796 0.58446,-4.41592 0.19481,-2.20796 0.19481,-4.48085 0,-4.74061 -0.0649,-9.41629 -0.0649,-4.74061 -0.0649,-9.48122 0,-2.20796 0,-4.5458 0,-2.40277 -0.51952,-4.54579 -0.12988,-0.38964 -0.38964,-0.90916 -0.25976,-0.58446 -0.58446,-1.10398 -0.25976,-0.58446 -0.51952,-1.03904 -0.19482,-0.45457 -0.19482,-0.71433 0,-0.77928 0.77928,-0.84422 0.77928,-0.0649 1.2988,-0.0649 1.10397,0 2.20795,0.12988 1.16892,0.12988 2.2729,0.12988 1.81832,0 3.57169,-0.19482 1.81832,-0.19482 3.63664,-0.19482 1.23386,0 2.46771,0.12988 1.23386,0.0649 2.53266,0.0649 1.10398,0 2.14302,-0.12988 1.10398,-0.19482 2.14301,-0.19482 z m 39.81075,0.3247 q 1.10398,0 1.94819,0.3247 -0.0649,1.36373 -0.77927,2.66253 -0.6494,1.23386 -1.23386,2.46772 -1.16892,2.2729 -2.33784,5.06531 -1.16892,2.72748 -2.79241,5.13025 -1.55856,2.40278 -3.76652,4.02628 -2.14302,1.6235 -5.32507,1.6235 -1.2988,0 -2.20796,-0.45458 -0.84422,-0.45458 -1.88325,-1.16892 0.51951,-0.90916 1.10397,-1.75338 0.6494,-0.90916 0.9741,-1.88326 0.3247,-0.77928 0.58446,-1.55855 0.3247,-0.77928 0.71434,-1.49362 0.58446,0.45458 1.23386,0.90916 0.6494,0.45458 1.42868,0.45458 0.84421,0 1.81831,-0.3247 1.03904,-0.3247 1.88326,-0.90916 0.90916,-0.6494 1.42868,-1.42868 0.58446,-0.84422 0.58446,-1.81832 0,-0.25976 -0.12988,-0.77928 -1.55856,0.3247 -3.18206,0.51952 -1.55856,0.19482 -3.11711,0.19482 -1.36374,0 -2.66254,-0.25976 -1.2988,-0.25976 -2.46772,-0.51952 -1.10397,-0.3247 -2.07807,-0.58446 -0.9741,-0.25976 -1.81832,-0.25976 -1.2988,0 -2.07808,1.16892 -0.71434,1.10398 -1.10397,2.66254 -0.38964,1.55856 -0.51952,3.18205 -0.12988,1.55856 -0.12988,2.46772 0,3.05218 0.84422,6.23423 0.84421,3.11712 2.53265,5.71471 1.75338,2.5976 4.35097,4.2211 2.5976,1.62349 6.10436,1.62349 1.81831,0 3.11711,-0.25976 1.2988,-0.25976 2.40278,-0.77927 1.10398,-0.58446 2.14301,-1.36374 1.03904,-0.84422 2.33784,-1.9482 0.51952,1.10398 0.51952,2.5976 0,2.72747 -1.10398,5.00037 -1.03904,2.20796 -2.85735,3.76651 -1.81832,1.55856 -4.15616,2.40278 -2.33783,0.84422 -4.93543,0.84422 -4.48085,0 -7.72785,-1.9482 -3.24699,-2.01314 -5.39001,-5.13025 -2.07808,-3.18206 -3.11712,-7.07845 -0.97409,-3.89639 -0.97409,-7.79279 0,-6.88363 2.59759,-13.57244 0.58446,-1.42868 1.42868,-3.18205 0.84422,-1.75338 2.01314,-3.247 1.16891,-1.55856 2.59759,-2.53266 1.49362,-1.03903 3.31194,-1.03903 2.53265,0 5.06531,0.3247 2.53266,0.25976 5.06531,0.25976 2.07808,0 4.09122,-0.12988 2.01313,-0.19482 4.02627,-0.51952 0.38964,-0.0649 0.77928,-0.0649 0.45458,-0.0649 0.84422,-0.0649 z m 25.84864,0.38964 q 1.49362,0 2.85736,-0.19482 1.42868,-0.19482 2.92229,-0.19482 0.51952,0 0.9741,0.0649 0.45458,0.0649 0.45458,0.77928 0,0.12988 -0.0649,0.25976 0,0.0649 0,0.19481 -0.45458,2.46772 -0.77928,4.8705 -0.3247,2.40277 -0.3247,4.93543 0,3.83145 0.51952,7.59797 0.58446,3.76651 0.90916,7.59797 0.3247,3.37687 0.38964,6.75375 0.12988,3.31193 0.45458,6.62387 0.0649,0.71434 0.3247,1.36374 0.3247,0.58445 0.6494,1.23385 0.3247,0.58446 0.58446,1.23386 0.3247,0.58446 0.45458,1.2988 -0.6494,0.12988 -1.2988,0.19482 -0.6494,0.0649 -1.36374,0.0649 -1.36374,0 -2.72748,-0.0649 -1.29879,-0.12988 -2.66253,-0.12988 -1.23386,0 -2.46772,0.12988 -1.23386,0.12988 -2.46771,0.12988 -0.77928,0 -1.23386,-0.12988 -0.38964,-0.19482 -1.03904,-0.71434 0.71434,-0.9741 1.42868,-1.88326 0.77928,-0.97409 1.10398,-2.14301 0.84421,-3.05218 1.03903,-6.36411 0.25976,-3.31194 0.25976,-6.42905 0,-0.84422 0,-1.49362 0,-0.71434 -0.25976,-1.23386 -0.19482,-0.51952 -0.71434,-0.77928 -0.51951,-0.3247 -1.49361,-0.3247 -0.9741,0 -1.9482,0.3247 -0.90916,0.3247 -1.81832,0.71434 -0.90916,0.38964 -1.81831,0.71434 -0.84422,0.3247 -1.81832,0.3247 -1.88326,0 -2.66254,-1.36374 -0.77928,-1.36374 -0.77928,-2.98724 0,-1.55855 0.84422,-2.92229 0.84422,-1.36374 2.53266,-1.49362 0.58446,0.71434 0.84422,1.16892 0.25976,0.38964 0.51952,0.6494 0.25976,0.19482 0.77927,0.25976 0.51952,0.0649 1.6235,0.0649 0.58446,0 1.55856,-0.0649 1.03904,-0.12988 2.01314,-0.38964 0.9741,-0.25976 1.68843,-0.71434 0.77928,-0.45458 0.90916,-1.23386 0.25976,-1.2988 0.25976,-2.66253 0.0649,-1.42868 0.0649,-2.72748 0,-0.90916 0,-1.75338 0,-0.84422 -0.19482,-1.55856 -0.19482,-0.77927 -0.71434,-1.36373 -0.45458,-0.6494 -1.36373,-1.16892 -1.2988,-0.71434 -2.66254,-0.71434 -3.44181,0 -5.64977,2.14302 -2.14302,2.14301 -3.44182,5.26013 -1.23385,3.11711 -1.68843,6.55893 -0.45458,3.44181 -0.45458,6.03941 0,1.75338 0.25976,4.35097 0.25976,2.53266 1.03903,4.93544 0.77928,2.40277 2.20796,4.15615 1.42868,1.68844 3.83146,1.68844 0.64939,0 1.23385,-0.12988 0.58446,-0.12988 1.16892,-0.3247 0.12988,0.51952 0.25976,1.10398 0.12988,0.51952 0.12988,1.03903 0,0.90916 -0.51952,1.6235 -0.45458,0.6494 -1.16892,1.10398 -0.71433,0.45458 -1.62349,0.71434 -0.84422,0.19482 -1.6235,0.19482 -1.55856,0 -3.11712,-0.12988 -1.55855,-0.12988 -3.11711,-0.12988 -1.42868,0 -2.79242,0.25976 -1.36374,0.19482 -2.79241,0.19482 -0.90916,0 -1.75338,-0.19482 0.19482,-0.90916 0.51952,-1.68844 0.38964,-0.84422 0.6494,-1.75338 0.3247,-1.10397 0.38964,-2.20795 0.12988,-1.10398 0.19482,-2.20796 0.19482,-4.67567 0.45458,-9.35134 0.25976,-4.67568 0.97409,-9.28641 0.19482,-1.36374 0.51952,-2.85736 0.3247,-1.55855 0.58446,-3.11711 0.3247,-1.55856 0.51952,-3.05218 0.25976,-1.55856 0.25976,-2.85735 0,-0.90916 -0.25976,-1.81832 -0.19482,-0.9741 -0.51952,-1.75338 -0.25976,-0.84422 -0.51952,-1.36374 -0.19482,-0.58446 -0.19482,-0.71433 0,-0.71434 0.51952,-0.77928 0.51952,-0.0649 1.03904,-0.0649 1.75338,0 3.44182,0.12988 1.75337,0.12988 3.44181,0.12988 1.75338,0 3.44182,-0.12988 1.75337,-0.19482 3.50675,-0.19482 1.6235,0 3.18206,0.0649 1.55855,0.0649 3.18205,0.0649 z m 10.00331,0.84421 q 0.71434,-0.71433 1.6235,-0.90915 0.90916,-0.25976 1.81832,-0.25976 1.29879,0 2.46771,0.12988 1.23386,0.12988 2.46772,0.12988 2.07808,0 4.15615,-0.12988 2.07808,-0.12988 4.15616,-0.12988 1.2988,0 2.59759,0.12988 1.36374,0.12988 2.66254,0.12988 1.2988,0 2.53266,-0.0649 1.29879,-0.12988 2.59759,-0.19482 1.23386,0.84422 1.88326,2.14301 0.6494,1.23386 0.90916,2.66254 0.3247,1.36374 0.38964,2.85736 0.0649,1.49361 0.0649,2.85735 0,5.26013 -0.71434,10.39039 -0.6494,5.13025 -0.6494,10.39038 0,2.72748 0.3247,4.80555 0.38964,2.07808 1.88326,4.41592 0.51951,0.77928 1.16891,1.36373 0.71434,0.58446 1.2988,1.2988 0.0649,0.58446 -0.25976,0.90916 -0.3247,0.3247 -0.84422,0.51952 -0.45458,0.19482 -1.03904,0.25976 -0.51951,0 -0.90915,0 -0.90916,0 -1.88326,-0.0649 -0.9741,-0.0649 -1.88326,-0.0649 -0.90916,0 -1.88326,0.12988 -0.90915,0.12988 -1.81831,0.12988 -0.9741,0 -1.55856,-0.6494 -0.71434,-1.68844 -0.90916,-3.76651 -0.19482,-2.14302 -0.19482,-4.02628 0,-2.40277 0.19482,-4.74061 0.25976,-2.33784 0.51952,-4.74061 0.12988,-1.55856 0.38964,-3.11712 0.3247,-1.55856 0.3247,-3.11711 0,-1.23386 0.19482,-2.40278 0.19482,-1.23386 0.19482,-2.46772 0,-1.62349 -0.19482,-3.70157 -0.12988,-2.07808 -0.77928,-3.83146 -0.58446,-1.81831 -1.88326,-3.05217 -1.2988,-1.23386 -3.57169,-1.23386 -2.14302,0 -3.247,1.68844 -1.03904,1.6235 -1.42867,3.89639 -0.38964,2.2729 -0.38964,4.67568 0.0649,2.33783 0.0649,3.76651 0,3.89639 0.0649,7.85773 0.0649,3.89639 0.3247,7.79279 0.12987,2.59759 1.03903,5.06531 0.90916,2.46772 2.9223,4.22109 0.19482,0.19482 0.3247,0.38964 0.12988,0.12988 0.12988,0.45458 0,0.51952 -0.25976,0.71434 -0.25976,0.19482 -0.6494,0.3247 -0.38964,0.0649 -0.84422,0.0649 -0.45458,-0.0649 -0.77928,-0.0649 -1.42868,0 -2.85735,-0.0649 -1.42868,-0.0649 -2.9223,-0.0649 -1.10398,0 -2.20796,0.0649 -1.03903,0.0649 -2.14301,0.0649 -0.71434,0 -1.42868,-0.0649 -0.6494,-0.0649 -1.36374,-0.38964 1.03904,-1.68844 1.6235,-3.05218 0.6494,-1.42867 0.9741,-2.85735 0.3247,-1.42868 0.38964,-2.98724 0.0649,-1.55855 0.0649,-3.50675 0,-5.19519 -0.25976,-10.32545 -0.19482,-5.13025 -0.19482,-10.2605 0,-1.88326 -0.0649,-3.11712 -0.0649,-1.29879 -0.3247,-2.33783 -0.25976,-1.10398 -0.84422,-2.20796 -0.51952,-1.16892 -1.55856,-2.72748 z m 57.66928,-0.84421 q 1.49362,0 2.85736,-0.19482 1.42868,-0.19482 2.9223,-0.19482 0.51951,0 0.97409,0.0649 0.45458,0.0649 0.45458,0.77928 0,0.12988 -0.0649,0.25976 0,0.0649 0,0.19481 -0.45458,2.46772 -0.77928,4.8705 -0.3247,2.40277 -0.3247,4.93543 0,3.83145 0.51952,7.59797 0.58446,3.76651 0.90916,7.59797 0.3247,3.37687 0.38964,6.75375 0.12988,3.31193 0.45458,6.62387 0.0649,0.71434 0.3247,1.36374 0.3247,0.58445 0.6494,1.23385 0.3247,0.58446 0.58446,1.23386 0.3247,0.58446 0.45458,1.2988 -0.6494,0.12988 -1.2988,0.19482 -0.6494,0.0649 -1.36374,0.0649 -1.36374,0 -2.72747,-0.0649 -1.2988,-0.12988 -2.66254,-0.12988 -1.23386,0 -2.46772,0.12988 -1.23385,0.12988 -2.46771,0.12988 -0.77928,0 -1.23386,-0.12988 -0.38964,-0.19482 -1.03904,-0.71434 0.71434,-0.9741 1.42868,-1.88326 0.77928,-0.97409 1.10398,-2.14301 0.84422,-3.05218 1.03904,-6.36411 0.25976,-3.31194 0.25976,-6.42905 0,-0.84422 0,-1.49362 0,-0.71434 -0.25976,-1.23386 -0.19482,-0.51952 -0.71434,-0.77928 -0.51952,-0.3247 -1.49362,-0.3247 -0.9741,0 -1.9482,0.3247 -0.90916,0.3247 -1.81832,0.71434 -0.90915,0.38964 -1.81831,0.71434 -0.84422,0.3247 -1.81832,0.3247 -1.88326,0 -2.66254,-1.36374 -0.77927,-1.36374 -0.77927,-2.98724 0,-1.55855 0.84421,-2.92229 0.84422,-1.36374 2.53266,-1.49362 0.58446,0.71434 0.84422,1.16892 0.25976,0.38964 0.51952,0.6494 0.25976,0.19482 0.77928,0.25976 0.51952,0.0649 1.62349,0.0649 0.58446,0 1.55856,-0.0649 1.03904,-0.12988 2.01314,-0.38964 0.9741,-0.25976 1.68844,-0.71434 0.77928,-0.45458 0.90916,-1.23386 0.25976,-1.2988 0.25976,-2.66253 0.0649,-1.42868 0.0649,-2.72748 0,-0.90916 0,-1.75338 0,-0.84422 -0.19481,-1.55856 -0.19482,-0.77927 -0.71434,-1.36373 -0.45458,-0.6494 -1.36374,-1.16892 -1.2988,-0.71434 -2.66254,-0.71434 -3.44181,0 -5.64977,2.14302 -2.14302,2.14301 -3.44181,5.26013 -1.23386,3.11711 -1.68844,6.55893 -0.45458,3.44181 -0.45458,6.03941 0,1.75338 0.25976,4.35097 0.25976,2.53266 1.03904,4.93544 0.77928,2.40277 2.20795,4.15615 1.42868,1.68844 3.83146,1.68844 0.6494,0 1.23386,-0.12988 0.58446,-0.12988 1.16891,-0.3247 0.12988,0.51952 0.25976,1.10398 0.12988,0.51952 0.12988,1.03903 0,0.90916 -0.51952,1.6235 -0.45457,0.6494 -1.16891,1.10398 -0.71434,0.45458 -1.6235,0.71434 -0.84422,0.19482 -1.6235,0.19482 -1.55856,0 -3.11711,-0.12988 -1.55856,-0.12988 -3.11712,-0.12988 -1.42868,0 -2.79242,0.25976 -1.36373,0.19482 -2.79241,0.19482 -0.90916,0 -1.75338,-0.19482 0.19482,-0.90916 0.51952,-1.68844 0.38964,-0.84422 0.6494,-1.75338 0.3247,-1.10397 0.38964,-2.20795 0.12988,-1.10398 0.19482,-2.20796 0.19482,-4.67567 0.45458,-9.35134 0.25976,-4.67568 0.9741,-9.28641 0.19482,-1.36374 0.51952,-2.85736 0.3247,-1.55855 0.58446,-3.11711 0.32469,-1.55856 0.51951,-3.05218 0.25976,-1.55856 0.25976,-2.85735 0,-0.90916 -0.25976,-1.81832 -0.19482,-0.9741 -0.51951,-1.75338 -0.25976,-0.84422 -0.51952,-1.36374 -0.19482,-0.58446 -0.19482,-0.71433 0,-0.71434 0.51952,-0.77928 0.51951,-0.0649 1.03903,-0.0649 1.75338,0 3.44182,0.12988 1.75338,0.12988 3.44181,0.12988 1.75338,0 3.44182,-0.12988 1.75338,-0.19482 3.50675,-0.19482 1.6235,0 3.18206,0.0649 1.55856,0.0649 3.18205,0.0649 z"
           id="text59"
           style="font-size:64.9399px;font-family:CATEckmann;-inkscape-font-specification:'CATEckmann, Normal';letter-spacing:-1.75079px;stroke-linecap:round;stroke-linejoin:round;paint-order:stroke markers fill"
           aria-label="ARCANA" />
        <path
           d="m 400.9095,70.527981 q 2.94874,1.587782 4.99017,4.876759 2.04144,3.175564 3.28898,7.031606 1.36096,3.742629 1.92802,7.712084 0.56707,3.856042 0.56707,6.918193 v 1.13413 q 0,4.763347 -1.47437,10.774237 -1.47437,5.89747 -4.42311,11.22789 -2.83533,5.21699 -7.14502,8.84621 -4.30969,3.5158 -10.09376,3.5158 -1.58778,0 -3.28897,-0.45365 -1.58779,-0.45365 -2.94874,-1.36096 -1.36096,-1.02071 -2.26826,-2.38167 -0.79389,-1.36095 -0.79389,-3.06215 0,-1.13413 0.79389,-2.49509 0.9073,-1.36095 2.15484,-2.49508 1.24755,-1.24754 2.6085,-2.04144 1.47437,-0.79389 2.72192,-0.79389 h 0.45365 q 0.68048,0.56707 0.68048,1.47437 0,0.68048 -0.22683,1.36096 -0.22683,0.68048 -0.22683,1.36095 0,1.13413 0.90731,1.92803 1.02072,0.68047 2.04143,0.68047 2.15485,0 3.40239,-1.92802 1.24755,-1.92802 1.92802,-4.53652 0.68048,-2.72191 0.90731,-5.33041 0.22682,-2.72191 0.22682,-4.19628 0,-1.92802 -0.34024,-4.87676 -0.34023,-2.94874 -1.13413,-6.237714 -0.79389,-3.40239 -1.92802,-6.691367 -1.13413,-3.288977 -2.83532,-5.897476 -1.58778,-2.721912 -3.62922,-4.423107 -2.04143,-1.701195 -4.53652,-1.701195 -2.26826,0 -3.62921,1.020717 -1.36096,0.907304 -2.15485,2.495086 -0.68048,1.474369 -0.90731,3.288977 -0.22682,1.814608 -0.34023,3.629216 -0.11342,3.062151 -0.34024,6.124302 -0.11342,2.948738 -0.11342,6.010891 0,6.80478 0.11342,14.51686 0.11341,7.59867 1.58778,14.29004 0.9073,3.74263 1.81461,7.14502 1.02071,3.28898 3.28897,6.46454 0.68048,0.90731 1.47437,1.81461 0.90731,0.9073 1.58779,1.81461 0.34023,0.34024 0.34023,0.79389 0,1.02072 -1.92802,1.36095 -1.92802,0.34024 -4.4231,0.34024 -2.49509,0.11342 -4.87676,0 -2.26826,-0.11341 -3.06215,-0.11341 -2.6085,0 -5.33042,0.22683 -2.72191,0.34024 -5.33041,0.34024 -0.45365,0 -1.13413,-0.22683 -0.56706,-0.11341 -0.56706,-0.79389 0,-0.68048 0.45365,-1.47437 0.45365,-0.9073 0.68048,-1.58778 0.9073,-2.04144 1.36095,-4.64994 0.45366,-2.72191 0.68048,-5.55723 0.22683,-2.94874 0.22683,-5.67065 0,-2.83533 0,-5.10359 0,-6.80478 -0.22683,-13.38273 -0.22682,-6.57796 -0.22682,-13.382737 0,-4.196281 -0.11342,-8.279149 -0.11341,-4.196281 -0.68047,-8.392562 -0.34024,-2.608499 -1.36096,-5.103585 -1.02072,-2.495086 -1.24754,-5.103585 2.6085,-0.453652 5.78406,-0.453652 4.64993,0 9.18645,0.453652 4.53652,0.340239 9.18646,0.340239 2.04143,0 4.08286,0 2.15485,-0.113413 4.3097,-0.226826 2.38167,-0.113413 4.76334,-0.453652 2.38168,-0.340239 4.76335,-0.453652 z m 23.02456,1.13413 q 2.72192,0 5.33042,-0.340239 2.72191,-0.453652 5.33041,-0.793891 -0.56707,4.082868 -1.58779,7.598671 -1.02071,3.40239 -2.94873,6.010889 -1.92802,2.495086 -4.99018,3.969455 -3.06215,1.474369 -7.59867,1.587782 0.45366,-1.474369 0.90731,-2.835325 0.45365,-1.474369 0.45365,-3.062151 0,-2.041434 -0.68048,-3.969455 -0.56706,-1.928021 -1.36095,-3.515803 -0.7939,-1.587782 -1.47437,-2.608499 -0.56707,-1.13413 -0.56707,-1.474369 0,-0.793891 0.68048,-1.020717 0.79389,-0.226826 1.36096,-0.226826 1.8146,0 3.5158,0.340239 1.81461,0.340239 3.62921,0.340239 z m 8.39257,13.60956 q 0,3.288977 -0.56707,6.691367 -0.45365,3.288977 -0.56706,6.577954 -0.11342,2.721908 -0.22683,5.443828 -0.11341,2.6085 -0.11341,5.33041 0,3.74263 0,7.82549 0.11341,3.96946 0.45365,8.05233 0.34024,3.96945 1.13413,7.82549 0.79389,3.85605 2.38167,7.37185 0.90731,1.92802 2.15485,3.62922 1.24754,1.58778 2.6085,3.17556 -0.90731,0.9073 -2.04144,1.24754 -1.02071,0.22683 -2.26826,0.22683 -2.38167,0 -4.76334,-0.22683 -2.38167,-0.22682 -4.76335,-0.22682 -2.72191,0 -5.44382,0.45365 -2.72191,0.34024 -5.33041,0.34024 -1.81461,0 -3.28898,-0.68048 0.68048,-2.15485 2.26826,-3.62922 1.7012,-1.47436 2.38167,-3.5158 0.68048,-2.15485 0.90731,-4.30969 0.22682,-2.26826 0.22682,-4.53652 0,-2.83533 -0.11341,-5.55724 -0.11341,-2.83533 -0.11341,-5.67065 0,-1.58778 0,-6.01089 0,-4.42311 0.11341,-9.29987 0.11341,-4.87675 0.34024,-8.959623 0.34024,-4.082868 1.02072,-4.990172 2.49508,-0.567065 4.64993,-0.907304 2.15485,-0.453652 4.30969,-1.928021 1.24755,-0.907304 2.26826,-2.041434 1.02072,-1.13413 2.38168,-1.701195 z m 7.48694,-12.47543 q 1.24754,-1.247543 2.83532,-1.587782 1.58778,-0.453652 3.17557,-0.453652 2.26826,0 4.30969,0.226826 2.15485,0.226826 4.3097,0.226826 3.62921,0 7.25843,-0.226826 3.62921,-0.226826 7.25843,-0.226826 2.26826,0 4.53652,0.226826 2.38167,0.226826 4.64993,0.226826 2.26826,0 4.42311,-0.113413 2.26826,-0.226826 4.53652,-0.340239 2.15485,1.474369 3.28898,3.742629 1.13413,2.154847 1.58778,4.649933 0.56706,2.381673 0.68048,4.990172 0.11341,2.608499 0.11341,4.990172 0,9.186453 -1.24754,18.146077 -1.13413,8.95963 -1.13413,18.14608 0,4.76335 0.56706,8.39257 0.68048,3.62921 3.28898,7.71208 0.9073,1.36096 2.04143,2.38167 1.24755,1.02072 2.26826,2.26826 0.11342,1.02072 -0.45365,1.58779 -0.56706,0.56706 -1.47437,0.9073 -0.79389,0.34024 -1.81461,0.45365 -0.9073,0 -1.58778,0 -1.58778,0 -3.28898,-0.11341 -1.70119,-0.11341 -3.28897,-0.11341 -1.58778,0 -3.28898,0.22682 -1.58778,0.22683 -3.17556,0.22683 -1.7012,0 -2.72192,-1.13413 -1.24754,-2.94874 -1.58778,-6.57796 -0.34024,-3.74263 -0.34024,-7.0316 0,-4.19628 0.34024,-8.27915 0.45365,-4.08287 0.90731,-8.27915 0.22682,-2.72191 0.68047,-5.44383 0.56707,-2.72191 0.56707,-5.44382 0,-2.15485 0.34024,-4.19628 0.34024,-2.15485 0.34024,-4.309695 0,-2.835325 -0.34024,-6.464541 -0.22683,-3.629216 -1.36096,-6.691367 -1.02071,-3.175564 -3.28897,-5.330411 -2.26826,-2.154847 -6.23772,-2.154847 -3.74263,0 -5.67065,2.948738 -1.81461,2.835325 -2.49509,6.80478 -0.68047,3.969455 -0.68047,8.165736 0.11341,4.082867 0.11341,6.577957 0,6.80478 0.11341,13.72297 0.11342,6.80478 0.56707,13.60956 0.22682,4.53652 1.81461,8.84622 1.58778,4.30969 5.10358,7.37184 0.34024,0.34024 0.56707,0.68048 0.22682,0.22682 0.22682,0.79389 0,0.9073 -0.45365,1.24754 -0.45365,0.34024 -1.13413,0.56707 -0.68048,0.11341 -1.47437,0.11341 -0.79389,-0.11341 -1.36096,-0.11341 -2.49508,0 -4.99017,-0.11342 -2.49508,-0.11341 -5.10358,-0.11341 -1.92802,0 -3.85605,0.11341 -1.8146,0.11342 -3.74262,0.11342 -1.24755,0 -2.49509,-0.11342 -1.13413,-0.11341 -2.38167,-0.68047 1.8146,-2.94874 2.83532,-5.33041 1.13413,-2.49509 1.7012,-4.99018 0.56706,-2.49508 0.68047,-5.217 0.11342,-2.72191 0.11342,-6.1243 0,-9.07304 -0.45365,-18.03266 -0.34024,-8.959632 -0.34024,-17.919259 0,-3.288977 -0.11342,-5.443824 -0.11341,-2.26826 -0.56706,-4.082868 -0.45365,-1.928021 -1.47437,-3.856042 -0.9073,-2.041434 -2.72191,-4.763346 z m 95.38209,-1.701195 q 0.9073,-0.113413 1.70119,-0.113413 0.79389,-0.113413 1.7012,-0.113413 2.26826,0 4.53652,0.226826 2.38167,0.226826 4.64993,0.226826 1.70119,0 3.28898,-0.113413 1.70119,-0.226826 3.40239,-0.226826 2.60849,0 3.06215,1.247543 0.45365,1.13413 0.45365,3.40239 0,2.041434 -1.58778,4.876759 -1.58779,2.835325 -4.08287,5.897476 -2.38167,3.062151 -5.217,6.237715 -2.72191,3.175564 -5.217,6.010889 -2.38167,2.835325 -3.96945,5.103585 -1.58778,2.26826 -1.58778,3.5158 0,0.90731 1.13413,3.28898 1.13413,2.38167 2.94873,5.67065 1.81461,3.28898 3.96946,6.91819 2.15485,3.62922 4.19628,6.9182 2.04143,3.28897 3.62922,5.89747 1.70119,2.6085 2.38167,3.62922 0.34024,0.56706 1.36095,1.58778 1.02072,1.02072 2.15485,2.15485 1.13413,1.13413 1.92802,2.15485 0.90731,0.9073 0.90731,1.24754 0,1.13413 -1.36096,1.58778 -1.24754,0.45365 -2.94874,0.56707 -1.70119,0 -3.40239,-0.11342 -1.58778,-0.11341 -2.38167,-0.11341 -3.28898,0 -6.57795,0.22683 -3.17557,0.11341 -6.46455,0.11341 -0.56706,0 -1.36095,-0.34024 -0.68048,-0.45365 -0.68048,-1.13413 0,-0.68048 0.34024,-1.13413 0.45365,-0.56707 0.9073,-1.02072 0.56707,-0.56706 1.02072,-1.13413 0.45365,-0.56706 0.45365,-1.47437 0,-1.02071 -0.9073,-3.28897 -0.79389,-2.26826 -2.15485,-4.99018 -1.24754,-2.83532 -2.94874,-5.78406 -1.70119,-2.94874 -3.40239,-5.33041 -1.70119,-2.49509 -3.28897,-4.08287 -1.47437,-1.58778 -2.49509,-1.58778 -1.70119,0 -2.04143,1.58778 -0.34024,1.47437 -0.34024,2.72191 0,2.38168 0.34024,5.44383 0.34024,3.06215 1.02071,6.1243 0.79389,3.06215 1.92802,5.89748 1.13413,2.83532 2.72192,4.64993 0.68047,0.79389 1.47437,1.58778 0.9073,0.79389 0.9073,1.92802 0,0.11342 -0.11341,0.22683 0,0.11341 0,0.34024 -0.56707,0.68048 -1.36096,0.9073 -0.68048,0.11341 -1.58778,0.11341 -3.28898,0 -6.69137,-0.22682 -3.40239,-0.34024 -6.80478,-0.34024 -2.15485,0 -4.30969,0.45365 -2.15485,0.34024 -4.08287,0.34024 -0.90731,0 -1.92802,-0.34024 -0.90731,-0.34024 -1.81461,-0.79389 0.56706,-1.81461 1.70119,-3.17556 1.24755,-1.47437 1.7012,-3.40239 0.9073,-4.53652 0.79389,-9.07304 0,-4.53652 0.22683,-9.18646 0.34024,-8.16573 0.34024,-16.44488 0,-2.83533 0,-6.80478 0.11341,-3.969458 -0.11342,-8.052326 -0.11341,-4.082868 -0.56706,-7.825497 -0.45365,-3.742629 -1.58778,-6.124302 -0.34024,-0.793891 -1.02072,-1.474369 -0.68048,-0.680478 -1.24754,-1.360956 -0.56707,-0.680478 -1.02072,-1.474369 -0.45365,-0.793891 -0.45365,-1.701195 v -0.453652 q 1.36095,-0.340239 2.72191,-0.453652 1.36095,-0.113413 2.72191,-0.113413 1.81461,0 3.62922,0 1.92802,0 3.74263,0.226826 2.72191,0.226826 4.08286,3.742629 1.47437,3.40239 2.04144,7.93891 0.68048,4.423107 0.79389,8.732801 0.11341,4.309694 0.11341,6.237715 0,0.907304 0,2.49509 0.11342,1.47437 0.34024,2.94873 0.34024,1.47437 1.02072,2.49509 0.68048,1.02072 2.04143,1.02072 1.92802,0 3.28898,-1.36096 3.85604,-3.96945 7.25843,-8.7328 3.40239,-4.876759 6.01089,-9.753518 1.13413,-2.154847 1.13413,-4.763346 0,-2.26826 -0.79389,-3.629216 -0.79389,-1.360956 -1.81461,-2.381673 -1.02072,-1.020717 -1.81461,-1.928021 -0.79389,-1.020717 -0.79389,-2.608499 0,-0.226826 0,-0.340239 0.11342,-0.226826 0.11342,-0.453652 z"
           id="text41"
           style="font-size:113.413px;font-family:CATEckmann;-inkscape-font-specification:'CATEckmann, Normal';letter-spacing:-1.69954px;stroke-linecap:round;stroke-linejoin:round;paint-order:stroke markers fill"
           aria-label="PINK" />
      </g>
    </g>
  </g>
</svg>
