<?xml version="1.0" encoding="UTF-8" standalone="no"?>
<svg
   viewBox="0 0 20 20"
   version="1.1"
   id="svg2"
   xml:space="preserve"
   width="20"
   height="20"
   xmlns:xlink="http://www.w3.org/1999/xlink"
   xmlns="http://www.w3.org/2000/svg"
   xmlns:svg="http://www.w3.org/2000/svg"><defs
     id="defs2" /><g
     id="layer1"
     style="display:inline"
     transform="translate(-2,-2)"><g
       id="g3"
       style="display:inline"><path
         id="circle3"
         style="fill:#ffffff;stroke-width:12.5566;stroke-linecap:round;stroke-linejoin:round;-inkscape-stroke:none"
         d="M 12,2 A 10,10 0 0 0 2,12 10,10 0 0 0 12,22 10,10 0 0 0 22,12 10,10 0 0 0 12,2 Z m 5.0625,3.4746094 a 1.5951968,1.5951968 0 0 1 0.990234,2.7265625 L 11.714844,14.646484 9.4785156,12.373047 15.816406,5.9257812 A 1.5951968,1.5951968 0 0 1 17.0625,5.4746094 Z M 7.3339844,5.4863281 H 12.925781 V 6.4179688 H 7.3339844 A 0.93179021,0.93179021 0 0 0 6.4023438,7.3496094 V 12.941406 H 5.4707031 V 7.3496094 A 1.8635804,1.8635804 0 0 1 7.3339844,5.4863281 Z M 17.583984,11.076172 h 0.931641 v 5.591797 a 1.8635804,1.8635804 0 0 1 -1.863281,1.863281 h -5.591797 v -0.931641 h 5.591797 a 0.93179021,0.93179021 0 0 0 0.93164,-0.93164 z m -9.3769528,2.365234 c 0.4903087,-0.0062 1.0679868,0.239669 1.6445313,0.826172 a 2.1710712,2.1710712 0 0 1 0,3.033203 c -0.8237015,0.836747 -2.4731732,1.051501 -3.296875,0.212891 -2.6099418,-2.653736 0.3144531,-0.971329 0.3144531,-2.488281 0,-0.47335 0.1455645,-0.872806 0.390625,-1.152344 0.2364415,-0.269054 0.5659145,-0.426801 0.9472656,-0.431641 z" /></g><use
       x="0"
       y="0"
       xlink:href="#rect1"
       id="use6" /></g></svg>
