<?xml version="1.0" encoding="UTF-8" standalone="no"?>
<svg
   viewBox="0 0 20 20"
   version="1.1"
   id="svg2"
   xml:space="preserve"
   width="20"
   height="20"
   xmlns:xlink="http://www.w3.org/1999/xlink"
   xmlns="http://www.w3.org/2000/svg"
   xmlns:svg="http://www.w3.org/2000/svg"><defs
     id="defs2" /><g
     id="g8"
     transform="translate(-2,-2)"><use
       x="0"
       y="0"
       xlink:href="#rect1"
       id="use8" /><g
       id="g5"
       style="display:inline"><path
         id="path2"
         style="fill:#ffffff;stroke-width:12.5566;stroke-linecap:round;stroke-linejoin:round;-inkscape-stroke:none"
         d="M 12,2 A 10,10 0 0 0 2,12 10,10 0 0 0 12,22 10,10 0 0 0 22,12 10,10 0 0 0 12,2 Z m 1.318359,4.1894531 a 3.0061844,3.0061844 0 0 1 2.003907,5.2402349 v 1.773437 l 3.007812,-2.003906 v 6.011719 l -3.007812,-2.003907 v 1.001953 a 1.0020614,1.0020614 0 0 1 -1.001954,1.001954 H 8.3085938 A 1.0020614,1.0020614 0 0 1 7.3066406,16.208984 V 14.029297 A 3.0061844,3.0061844 0 1 1 10.3125,8.9726562 3.0061844,3.0061844 0 0 1 13.318359,6.1894531 Z" /></g></g></svg>
